<svg width="27" height="27" viewBox="0 0 27 27" fill="none" xmlns="http://www.w3.org/2000/svg">
<path d="M23.6557 0.574585H3.34432C1.8152 0.574585 0.574585 1.8152 0.574585 3.34432V23.6557C0.574585 25.1848 1.8152 26.4255 3.34432 26.4255H23.6557C25.1848 26.4255 26.4255 25.1848 26.4255 23.6557V3.34432C26.4255 1.8152 25.1848 0.574585 23.6557 0.574585ZM16.5756 22.7152C16.0909 22.8017 15.912 22.5017 15.912 22.2535C15.912 21.9419 15.9235 20.3493 15.9235 19.0626C15.9235 18.1624 15.6235 17.5912 15.2715 17.2911C17.4065 17.0545 19.6569 16.7602 19.6569 13.073C19.6569 12.0228 19.2818 11.4977 18.6702 10.8226C18.7683 10.5745 19.0972 9.55315 18.5721 8.22598C17.77 7.97786 15.9351 9.25886 15.9351 9.25886C15.1734 9.04536 14.3483 8.93573 13.5346 8.93573C12.721 8.93573 11.8959 9.04536 11.1342 9.25886C11.1342 9.25886 9.29926 7.97786 8.49719 8.22598C7.97209 9.54738 8.29523 10.5687 8.39909 10.8226C7.78744 11.4977 7.49893 12.0228 7.49893 13.073C7.49893 16.7429 9.65124 17.0545 11.7862 17.2911C11.5093 17.5392 11.2612 17.9662 11.1746 18.5779C10.6264 18.826 9.22424 19.253 8.38755 17.7758C7.86245 16.8641 6.91613 16.7891 6.91613 16.7891C5.98134 16.7775 6.85265 17.3777 6.85265 17.3777C7.47585 17.6662 7.91439 18.7741 7.91439 18.7741C8.4741 20.4878 11.1515 19.9108 11.1515 19.9108C11.1515 20.7129 11.1631 22.017 11.1631 22.2535C11.1631 22.5017 10.9899 22.8017 10.4995 22.7152C6.69109 21.4399 4.02521 17.8162 4.02521 13.5808C4.02521 8.28368 8.07595 4.2618 13.3731 4.2618C18.6702 4.2618 22.9633 8.28368 22.9633 13.5808C22.9691 17.8162 20.384 21.4457 16.5756 22.7152ZM10.9149 19.1895C10.8053 19.2126 10.7014 19.1664 10.6899 19.0914C10.6784 19.0049 10.7534 18.9299 10.863 18.9068C10.9726 18.8952 11.0765 18.9414 11.088 19.0164C11.1054 19.0914 11.0303 19.1664 10.9149 19.1895ZM10.3668 19.1376C10.3668 19.2126 10.2802 19.2761 10.1648 19.2761C10.0379 19.2876 9.9513 19.2241 9.9513 19.1376C9.9513 19.0626 10.0379 18.9991 10.1533 18.9991C10.2629 18.9876 10.3668 19.051 10.3668 19.1376ZM9.57623 19.0741C9.55315 19.1491 9.43774 19.1838 9.33965 19.1491C9.23001 19.126 9.155 19.0395 9.17808 18.9645C9.20116 18.8895 9.31657 18.8548 9.41466 18.8779C9.53007 18.9125 9.60508 18.9991 9.57623 19.0741ZM8.86648 18.7625C8.81455 18.826 8.70492 18.8145 8.61836 18.7279C8.53181 18.6529 8.50873 18.5433 8.56643 18.4913C8.61836 18.4278 8.728 18.4394 8.81455 18.5259C8.88956 18.601 8.91842 18.7164 8.86648 18.7625ZM8.34139 18.2374C8.28946 18.272 8.19136 18.2374 8.12789 18.1509C8.06441 18.0643 8.06441 17.9662 8.12789 17.9258C8.19136 17.8739 8.28946 17.9143 8.34139 18.0008C8.40486 18.0874 8.40486 18.1913 8.34139 18.2374ZM7.96632 17.6777C7.91439 17.7296 7.82783 17.7008 7.76436 17.6431C7.70089 17.5681 7.68935 17.4815 7.74128 17.4411C7.79321 17.3892 7.87976 17.418 7.94324 17.4757C8.00671 17.5508 8.01825 17.6373 7.96632 17.6777ZM7.57971 17.2507C7.55663 17.3026 7.48162 17.3142 7.41814 17.2738C7.34313 17.2392 7.30851 17.1757 7.33159 17.1238C7.35467 17.0891 7.41814 17.0718 7.49316 17.1007C7.56817 17.1411 7.60279 17.2045 7.57971 17.2507Z" fill="white"/>
</svg>
