<svg width="18" height="14" viewBox="0 0 18 14" fill="none" xmlns="http://www.w3.org/2000/svg">
<path d="M1.84039 6.19872C6.27645 4.26605 9.23453 2.99183 10.7146 2.37625C14.9405 0.61855 15.8185 0.313241 16.3909 0.303016C16.5167 0.300898 16.7982 0.332142 16.9806 0.480046C17.1345 0.604917 17.1768 0.773685 17.1972 0.892152C17.2174 1.01052 17.2426 1.2804 17.2226 1.4912C16.9936 3.89733 16.0027 9.73643 15.4985 12.4313C15.2853 13.5717 14.8652 13.9541 14.4586 13.9914C13.575 14.0727 12.9039 13.4075 12.048 12.8464C10.7087 11.9685 9.95215 11.4219 8.6521 10.5653C7.14972 9.5752 8.1237 9.03109 8.97993 8.14181C9.20396 7.90911 13.0975 4.36768 13.1728 4.04637C13.1823 4.00619 13.191 3.85642 13.102 3.77731C13.013 3.6983 12.8817 3.72536 12.7869 3.74684C12.6526 3.77731 10.5131 5.19148 6.36838 7.98926C5.76106 8.40633 5.21097 8.60949 4.71819 8.59885C4.17481 8.58707 3.1297 8.29158 2.35275 8.03905C1.39979 7.72929 0.642392 7.56548 0.70835 7.03946C0.742702 6.76544 1.12004 6.48512 1.84039 6.19872Z" fill="white"/>
</svg>
