<svg width="22" height="13" viewBox="0 0 22 13" fill="none" xmlns="http://www.w3.org/2000/svg">
<path fill-rule="evenodd" clip-rule="evenodd" d="M21.2125 1.46052C21.3604 0.997823 21.2125 0.657837 20.5086 0.657837H18.1808C17.5889 0.657837 17.316 0.95153 17.168 1.27538C17.168 1.27538 15.9843 3.98208 14.3073 5.74023C13.7648 6.24913 13.5182 6.4111 13.2222 6.4111C13.0743 6.4111 12.8601 6.24913 12.8601 5.78652V1.46052C12.8601 0.905277 12.6883 0.657837 12.195 0.657837H8.53713C8.16725 0.657837 7.94481 0.915521 7.94481 1.15975C7.94481 1.68609 8.78323 1.80746 8.86966 3.28804V6.50364C8.86966 7.20865 8.73392 7.33648 8.43801 7.33648C7.64886 7.33648 5.72932 4.61771 4.59083 1.50677C4.36774 0.902104 4.14392 0.657837 3.54901 0.657837H1.22125C0.556185 0.657837 0.423157 0.95153 0.423157 1.27538C0.423157 1.85375 1.2123 4.72237 4.09763 8.51626C6.02118 11.1072 8.73132 12.5117 11.1974 12.5117C12.6771 12.5117 12.8602 12.1998 12.8602 11.6624V9.70423C12.8602 9.08033 13.0003 8.95583 13.4689 8.95583C13.8141 8.95583 14.406 9.11776 15.787 10.367C17.3653 11.8475 17.6255 12.5117 18.5133 12.5117H20.8411C21.5062 12.5117 21.8387 12.1998 21.6469 11.5842C21.4369 10.9706 20.6834 10.0804 19.6835 9.02521C19.1409 8.42376 18.3271 7.77601 18.0805 7.45208C17.7352 7.03572 17.8339 6.85063 18.0805 6.48052C18.0805 6.48052 20.9166 2.73284 21.2125 1.46052Z" fill="white"/>
</svg>
